<svg width="415" height="45" viewBox="0 0 415 45" fill="none" xmlns="http://www.w3.org/2000/svg">
<path d="M412.429 9.60482C397.924 2.70899 378.669 3.78711 362.835 2.92774C345.721 1.99544 328.596 1.27149 311.46 0.761069C276.684 -0.280598 241.877 -0.202473 207.096 0.688152C172.481 1.57357 137.95 3.37044 103.45 6.27149C85.9602 7.74024 68.4967 9.33399 51.0592 11.2454C34.9081 13.0059 18.0019 13.8392 2.43939 18.6569C2.46022 18.6882 2.48105 18.7194 2.50189 18.7507C-0.466863 19.9798 -1.36791 23.9382 3.01751 24.8236C19.1842 28.084 38.2675 23.6986 54.6633 22.5319C71.3977 21.334 88.1425 20.3236 104.903 19.5267C139.544 17.8809 174.247 16.8288 208.929 16.5684C242.101 16.3132 275.288 16.86 308.445 17.9538C324.955 18.4954 341.46 19.2298 357.95 20.1621C374.403 21.084 392.028 23.7715 408.247 20.0892C408.241 20.0371 408.236 19.9902 408.231 19.9434C413.439 18.3236 418.07 12.2871 412.429 9.60482Z" fill="#2DCBA5"/>
<path d="M360.533 35.6726C353.913 28.3965 346.148 27.9486 336.705 26.9017C326.392 25.7507 316.007 25.0736 305.653 24.3861C283.913 22.9434 262.106 22.4538 240.325 22.0267C219.419 21.6205 198.356 21.9642 177.471 22.933C154.351 24.0007 130.872 24.0111 107.898 26.8288C103.814 27.3288 105.752 31.8392 109.023 32.0111C130.585 33.1205 152.252 32.0424 173.835 33.2247C194.809 34.3705 215.794 35.2507 236.767 36.5215C257.439 37.7767 278.07 39.5528 298.705 41.3757C309.231 42.3028 319.747 43.3757 330.278 44.2819C340.757 45.1778 347.658 44.5944 357.606 41.4955C360.064 40.7299 362.872 38.2403 360.533 35.6726Z" fill="#2DCBA5"/>
</svg>
