<svg width="91" height="91" viewBox="0 0 91 91" fill="none" xmlns="http://www.w3.org/2000/svg">
<mask id="mask0_71_31" style="mask-type:luminance" maskUnits="userSpaceOnUse" x="63" y="0" width="28" height="28">
<path d="M63 0.833374H90.1146V27.6667H63V0.833374Z" fill="white"/>
</mask>
<g mask="url(#mask0_71_31)">
<path d="M87.9636 4.53646V26.0625C87.9636 26.3906 88.0938 26.6979 88.3229 26.9323C89.099 27.7031 90.4271 27.1563 90.4271 26.0625V2.07292C90.4271 1.39062 89.875 0.84375 89.1927 0.84375H65.2084C64.1094 0.84375 63.5573 2.16667 64.3386 2.94271C64.5677 3.17188 64.8802 3.30208 65.2084 3.30208H86.7292C87.4115 3.30208 87.9636 3.85417 87.9636 4.53646Z" fill="#2DCBA5"/>
</g>
<mask id="mask1_71_31" style="mask-type:luminance" maskUnits="userSpaceOnUse" x="0" y="0" width="27" height="28">
<path d="M0.114624 0.833374H27V27.6667H0.114624V0.833374Z" fill="white"/>
</mask>
<g mask="url(#mask1_71_31)">
<path d="M3.81252 3.30208H25.3386C25.6667 3.30208 25.9792 3.17708 26.2084 2.94271C26.9844 2.16667 26.4323 0.84375 25.3386 0.84375H1.34898C0.671895 0.84375 0.119812 1.39062 0.119812 2.07292V26.0625C0.119812 27.1563 1.44794 27.7083 2.21877 26.9323C2.45315 26.6979 2.58335 26.3854 2.58335 26.0625V4.53646C2.58335 3.85417 3.13544 3.30208 3.81252 3.30208Z" fill="#2DCBA5"/>
</g>
<mask id="mask2_71_31" style="mask-type:luminance" maskUnits="userSpaceOnUse" x="63" y="63" width="28" height="28">
<path d="M63 63.6667H90.1146V90.8334H63V63.6667Z" fill="white"/>
</mask>
<g mask="url(#mask2_71_31)">
<path d="M88.323 65.0574C88.0938 65.2918 87.9636 65.6043 87.9636 65.9272V87.4532C87.9636 88.1355 87.4115 88.6876 86.7292 88.6876H65.2084C64.8802 88.6876 64.5677 88.8126 64.3386 89.047C63.5625 89.823 64.1094 91.1459 65.2084 91.1459H89.1927C89.875 91.1459 90.4271 90.599 90.4271 89.9168V65.9272C90.4271 64.8334 89.099 64.2813 88.323 65.0574Z" fill="#2DCBA5"/>
</g>
<mask id="mask3_71_31" style="mask-type:luminance" maskUnits="userSpaceOnUse" x="0" y="63" width="27" height="28">
<path d="M0.114624 63.6667H27V90.8334H0.114624V63.6667Z" fill="white"/>
</mask>
<g mask="url(#mask3_71_31)">
<path d="M2.58335 87.4532V65.9272C2.58335 65.6043 2.45315 65.2918 2.21877 65.0574C1.44794 64.2866 0.119812 64.8334 0.119812 65.9272V89.9168C0.119812 90.5991 0.671895 91.1459 1.34898 91.1459H25.3386C26.4375 91.1459 26.9844 89.823 26.2084 89.047C25.9792 88.8178 25.6615 88.6876 25.3386 88.6876H3.81252C3.13544 88.6876 2.58335 88.1355 2.58335 87.4532Z" fill="#2DCBA5"/>
</g>
<path d="M26.1113 48.0313H18.9863V67.4896H12.653V21.5521H24.7155C30.4498 21.5521 34.7988 22.6459 37.7571 24.823C40.7155 27.0052 42.1946 30.25 42.1946 34.5521C42.1946 37.7605 41.3665 40.3646 39.7155 42.3646C38.0748 44.3646 35.5905 45.875 32.2571 46.8855L44.653 67.4896H37.1113L26.1113 48.0313ZM25.3821 43.1563C28.7155 43.1563 31.2207 42.4844 32.903 41.1355C34.5957 39.7761 35.4446 37.5834 35.4446 34.5521C35.4446 31.7084 34.5905 29.6511 32.8821 28.3855C31.1738 27.125 28.429 26.4896 24.653 26.4896H18.9863V43.1563H25.3821Z" fill="black"/>
<path d="M77.4394 67.4896L73.981 55.948H56.5852L53.106 67.4896H46.7102L61.4394 21.5521H69.4394L84.106 67.4896H77.4394ZM58.106 50.823H72.4394L65.3144 26.823L58.106 50.823Z" fill="#363636"/>
</svg>
